<svg width="110.000000" height="56.000000" viewBox="0 0 110 56" fill="none" xmlns="http://www.w3.org/2000/svg" xmlns:xlink="http://www.w3.org/1999/xlink">
	<desc>
			Created with Pixso.
	</desc>
	<defs>
		<clipPath id="clip6_130">
			<rect id="tabler-icon-steering-wheel" width="32.000000" height="32.000000" transform="translate(39.000000 12.000000)" fill="white" fill-opacity="0"/>
		</clipPath>
	</defs>
	<rect id="Rectangle 12" rx="12.000000" width="110.000000" height="56.000000" fill="#030712" fill-opacity="0.100000"/>
	<rect id="tabler-icon-steering-wheel" width="32.000000" height="32.000000" transform="translate(39.000000 12.000000)" fill="#FFFFFF" fill-opacity="0"/>
	<g clip-path="url(#clip6_130)">
		<path id="Vector" d="M43.9133 32.5922C44.5166 34.0481 45.4004 35.371 46.5146 36.4853C47.6289 37.5996 48.9519 38.4835 50.4077 39.0865C51.8638 39.6896 53.4241 40 55 40C56.5759 40 58.1362 39.6896 59.5923 39.0865C61.0481 38.4835 62.3711 37.5996 63.4854 36.4853C64.5996 35.371 65.4834 34.0481 66.0867 32.5922C66.6897 31.1363 67 29.5759 67 28C67 26.4241 66.6897 24.8637 66.0867 23.4078C65.4834 21.9519 64.5996 20.629 63.4854 19.5147C62.3711 18.4004 61.0481 17.5165 59.5923 16.9135C58.1362 16.3104 56.5759 16 55 16C53.4241 16 51.8638 16.3104 50.4077 16.9135C48.9519 17.5165 47.6289 18.4004 46.5146 19.5147C45.4004 20.629 44.5166 21.9519 43.9133 23.4078C43.3103 24.8637 43 26.4241 43 28C43 29.5759 43.3103 31.1363 43.9133 32.5922ZM53.1145 29.8856C53.6145 30.3857 54.2927 30.6667 55 30.6667C55.7073 30.6667 56.3855 30.3857 56.8855 29.8856C57.3857 29.3855 57.6667 28.7072 57.6667 28C57.6667 27.2928 57.3857 26.6145 56.8855 26.1144C56.3855 25.6143 55.7073 25.3333 55 25.3333C54.2927 25.3333 53.6145 25.6143 53.1145 26.1144C52.6143 26.6145 52.3333 27.2928 52.3333 28C52.3333 28.7072 52.6143 29.3855 53.1145 29.8856ZM55 30.6667L55 40M52.3333 28L43.3333 25.3333M57.6667 28L66.6667 25.3333" stroke="#030712" stroke-opacity="0.700000" stroke-width="2.000000" stroke-linejoin="round" stroke-linecap="round"/>
	</g>
</svg>
